<?xml version="1.0" encoding="UTF-8"?>
<svg width="512" height="512" viewBox="0 0 512 512" fill="none" xmlns="http://www.w3.org/2000/svg">
    <rect width="512" height="512" rx="128" fill="#9333EA"/>
    <path d="M256 96C192 96 144 144 144 208C144 240 160 272 176 288C192 304 208 320 208 352V384C208 402.667 221.333 416 248 416H264C290.667 416 304 402.667 304 384V352C304 320 320 304 336 288C352 272 368 240 368 208C368 144 320 96 256 96ZM256 128C300 128 336 164 336 208C336 232 324 256 312 268C292 288 272 308 272 352V384H240V352C240 308 220 288 200 268C188 256 176 232 176 208C176 164 212 128 256 128Z" fill="white"/>
    <path d="M240 416H272V432C272 442.667 264 448 256 448C248 448 240 442.667 240 432V416Z" fill="white"/>
</svg> 